<?xml version="1.0" encoding="UTF-8"?>
<svg xmlns="http://www.w3.org/2000/svg" width="590" height="320" viewBox="0 0 590 320" fill="none" role="img"><defs><linearGradient id="frame" x1="0" y1="0" x2="1" y2="1"><stop offset="0%" stop-color="#1f6feb"/><stop offset="100%" stop-color="#8b5cf6"/></linearGradient><linearGradient id="chip" x1="0" y1="0" x2="1" y2="1"><stop offset="0%" stop-color="#12233d"/><stop offset="100%" stop-color="#111827"/></linearGradient></defs><style>text{font-family:-apple-system,BlinkMacSystemFont,'Segoe UI',Helvetica,Arial,sans-serif;letter-spacing:0}</style>
<rect width="590" height="320" rx="24" fill="#0d1117" />
<rect x="1.5" y="1.5" width="587" height="317" rx="22.5" stroke="url(#frame)" stroke-width="3" stroke-opacity="0.85" />
<rect x="22" y="22" width="546" height="276" rx="18" fill="#111827" stroke="#1f2937" />
<text x="36" y="62" fill="#58a6ff" font-size="24" font-weight="700">Recent Contribution Languages</text>
<text x="36" y="88" fill="#94a3b8" font-size="13">Weighted from recent public push and pull request activity</text>
<text x="36" y="128" fill="#e5edf5" font-size="16" font-weight="700">Python</text><rect x="210" y="114" width="300" height="14" rx="7" fill="#1f2937" /><rect x="210" y="114" width="280" height="14" rx="7" fill="#3572A5" /><text x="528" y="128" text-anchor="end" fill="#94a3b8" font-size="14">16.4</text><text x="36" y="166" fill="#e5edf5" font-size="16" font-weight="700">Go</text><rect x="210" y="152" width="300" height="14" rx="7" fill="#1f2937" /><rect x="210" y="152" width="99" height="14" rx="7" fill="#00ADD8" /><text x="528" y="166" text-anchor="end" fill="#94a3b8" font-size="14">5.8</text>
<text x="36" y="250" fill="#94a3b8" font-size="12">Recent public repos</text>
<text x="36" y="274" text-anchor="start" fill="#94a3b8" font-size="12" font-weight="500">Kalsaria-C/Kalsaria-C</text><text x="36" y="292" text-anchor="start" fill="#94a3b8" font-size="12" font-weight="500">oracle-samples/otel-collector-exporter-orac…</text><text x="36" y="310" text-anchor="start" fill="#94a3b8" font-size="12" font-weight="500">Kalsaria-C/otel-collector-exporter-oracleob…</text>
</svg>
